# xmcd
#
# Track frame offsets:
#  150
#  12853
#  24783
#  41504
#  53697
#  70794
#  90402
#  103705
#  122446
#  132641
#  145094
#  163035
#  180385
#  195486
#  207788
#
# Disc length: 3032 seconds
#
# Revision: 0
# Processed by: cddbd v1.5.1PL2 Copyright (c) Steve Scherf et al.
# Submitted via: Collectorz.com_Music_Collector 6.9
#
DISCID=ba0bd60f
DTITLE=Louis! - Compass and Chart
DYEAR=2000
DGENRE=Nederpop
TTITLE0=Leave Me Alone
TTITLE1=Paper Tiger
TTITLE2=Moths To A Flame
TTITLE3=Daddy's Girl
TTITLE4=Lingering Spirit
TTITLE5=Slipping Away
TTITLE6=Destiny
TTITLE7=You Can't Catch Time
TTITLE8=Don't Worry
TTITLE9=Don't Mistake Kidness For Love
TTITLE10=How High Your Head Was
TTITLE11=Moving On
TTITLE12=Sally and Johnny
TTITLE13=More Than My Poor Heart Can Take
TTITLE14=Tomorrow's A Long Time Away
EXTD=
EXTT0=
EXTT1=
EXTT2=
EXTT3=
EXTT4=
EXTT5=
EXTT6=
EXTT7=
EXTT8=
EXTT9=
EXTT10=
EXTT11=
EXTT12=
EXTT13=
EXTT14=
PLAYORDER=
